<?xml version="1.0" encoding="UTF-8"?>
<!DOCTYPE svg PUBLIC "-//W3C//DTD SVG 1.1//EN" "http://www.w3.org/Graphics/SVG/1.1/DTD/svg11.dtd">
<!-- Creator: CorelDRAW X7 -->
<svg xmlns="http://www.w3.org/2000/svg" xml:space="preserve" width="0.909291in" height="0.913752in" version="1.1" style="shape-rendering:geometricPrecision; text-rendering:geometricPrecision; image-rendering:optimizeQuality; fill-rule:evenodd; clip-rule:evenodd"
viewBox="0 0 909 914"
 xmlns:xlink="http://www.w3.org/1999/xlink">
 <defs>
  <style type="text/css">
   <![CDATA[
    .fil2 {fill:url(#id0)}
    .fil1 {fill:url(#id1)}
    .fil0 {fill:url(#id2)}
   ]]>
  </style>
  <linearGradient id="id0" gradientUnits="userSpaceOnUse" x1="454.646" y1="600.488" x2="454.646" y2="317.354">
   <stop offset="0" style="stop-opacity:1; stop-color:#FFCC29"/>
   <stop offset="1" style="stop-opacity:1; stop-color:#D83337"/>
  </linearGradient>
  <linearGradient id="id1" gradientUnits="userSpaceOnUse" x1="454.646" y1="189.819" x2="454.646" y2="81.3543">
   <stop offset="0" style="stop-opacity:1; stop-color:#FDD103"/>
   <stop offset="1" style="stop-opacity:1; stop-color:#ED3237"/>
  </linearGradient>
  <linearGradient id="id2" gradientUnits="userSpaceOnUse" x1="454.343" y1="778.217" x2="454.343" y2="597.5">
   <stop offset="0" style="stop-opacity:1; stop-color:#0064A6"/>
   <stop offset="0.588235" style="stop-opacity:1; stop-color:#0B867E"/>
   <stop offset="1" style="stop-opacity:1; stop-color:#17A855"/>
  </linearGradient>
 </defs>
 <g id="Layer_x0020_1">
  <metadata id="CorelCorpID_0Corel-Layer"/>
  <g id="_2361770282816">
   <path class="fil0" d="M183 645c6,3 182,181 203,202 11,11 61,62 69,67 7,-4 28,-27 34,-33 28,-28 231,-233 237,-236l50 -49c6,-12 105,-105 131,-134l-100 0c-26,28 -240,241 -264,264 -12,12 -82,84 -89,88l-351 -352 -101 0 131 131 50 52z"/>
   <path class="fil1" d="M233 221l222 -221c9,6 21,20 29,28l192 193 -50 50 -171 -171 -171 171 -51 -50z"/>
   <path class="fil2" d="M907 462c1,-1 2,-2 2,-3l-184 -183 -134 132c-6,-3 -79,-76 -85,-85l-52 -50c-46,45 -92,90 -137,135l-134 -133 -49 50 0 0 -21 21c-20,19 -38,37 -58,57 -9,10 -51,49 -55,57l2 2 101 0 -2 -2c4,-8 61,-62 82,-83l134 133 6 -5c6,-6 15,-16 25,-26l20 -20 0 0c7,-7 13,-13 18,-17 18,-15 53,-58 69,-68 8,7 82,81 85,86l-135 137 50 48c14,-8 259,-263 271,-268l83 83c-1,0 -1,1 -2,2l100 0z"/>
  </g>
 </g>
</svg>
